<svg width="36" height="36" viewBox="0 0 36 36" fill="none" xmlns="http://www.w3.org/2000/svg">
<path d="M7.375 15.875C7.375 11.8681 7.375 9.86459 8.6198 8.6198C9.86459 7.375 11.8681 7.375 15.875 7.375H20.125C24.1319 7.375 26.1354 7.375 27.3802 8.6198C28.625 9.86459 28.625 11.8681 28.625 15.875V20.125C28.625 24.1319 28.625 26.1354 27.3802 27.3802C26.1354 28.625 24.1319 28.625 20.125 28.625H15.875C11.8681 28.625 9.86459 28.625 8.6198 27.3802C7.375 26.1354 7.375 24.1319 7.375 20.125V15.875Z" stroke="#222222"/>
<rect x="13.75" y="13.75" width="8.5" height="8.5" rx="1" fill="#222222"/>
<path d="M13.75 7.375V1" stroke="#222222" stroke-linecap="round"/>
<path d="M22.25 7.375V1" stroke="#222222" stroke-linecap="round"/>
<path d="M28.625 13.75L35 13.75" stroke="#222222" stroke-linecap="round"/>
<path d="M28.625 22.25L35 22.25" stroke="#222222" stroke-linecap="round"/>
<path d="M13.75 35V28.625" stroke="#222222" stroke-linecap="round"/>
<path d="M22.25 35V28.625" stroke="#222222" stroke-linecap="round"/>
<path d="M1 13.75L7.375 13.75" stroke="#222222" stroke-linecap="round"/>
<path d="M1 22.25L7.375 22.25" stroke="#222222" stroke-linecap="round"/>
</svg>
